<?xml version="1.0" encoding="utf-8"?>
<!-- Generator: Adobe Illustrator 19.2.1, SVG Export Plug-In . SVG Version: 6.00 Build 0)  -->
<svg version="1.1" id="Capa_1" xmlns="http://www.w3.org/2000/svg" xmlns:xlink="http://www.w3.org/1999/xlink" x="0px" y="0px"
	 viewBox="0 0 44.3 39.5" style="enable-background:new 0 0 44.3 39.5;" xml:space="preserve">
<style type="text/css">
	.st0{fill:#FFFFFF;}
</style>
<g>
	<path class="st0" d="M20.7,7.7c0-3,2.4-5.4,5.3-5.4h0c3,0,5.4,2.4,5.4,5.4c0,0.5,0.4,1,1,1c0.5,0,1-0.4,1-1c0-4.1-3.3-7.4-7.3-7.4
		h0c-4,0-7.3,3.3-7.3,7.4v1.1h2L20.7,7.7L20.7,7.7z"/>
	<path class="st0" d="M32.4,10.8c-0.5,0-1,0.4-1,1V14c0,0.5,0.4,1,1,1s1-0.4,1-1v-2.2C33.4,11.2,33,10.8,32.4,10.8z"/>
	<path class="st0" d="M37.8,11.1l-1.6-1.6c-0.4-0.4-1-0.4-1.4,0c-0.4,0.4-0.4,1,0,1.4l1.6,1.6c0.2,0.2,0.4,0.3,0.7,0.3
		c0.3,0,0.5-0.1,0.7-0.3C38.2,12.1,38.2,11.5,37.8,11.1z"/>
	<path class="st0" d="M28.7,9.5l-1.6,1.6c-0.4,0.4-0.4,1,0,1.4c0.2,0.2,0.4,0.3,0.7,0.3s0.5-0.1,0.7-0.3l1.6-1.6
		c0.4-0.4,0.4-1,0-1.4C29.7,9.1,29.1,9.1,28.7,9.5z"/>
	<path class="st0" d="M25,15.6c-0.6-0.3-1.2-0.5-2-0.7v-2.8c0-0.7-0.5-1.3-1.2-1.3h0h-4.1c-0.7,0-1.3,0.6-1.3,1.3v2.8
		c-0.7,0.2-1.3,0.4-2,0.7c-4.2,2-7.2,6.3-7.2,11.3c0,6.9,5.6,12.5,12.5,12.5c6.9,0,12.5-5.6,12.5-12.5C32.2,21.9,29.2,17.6,25,15.6z
		 M19.7,35.2c-4.6,0-8.3-3.7-8.3-8.3c0-0.5,0.4-1,1-1s1,0.4,1,1c0,3.5,2.8,6.3,6.3,6.3c0.5,0,1,0.4,1,1
		C20.6,34.7,20.2,35.2,19.7,35.2z"/>
</g>
</svg>
