<?xml version="1.0" encoding="utf-8"?>
<!-- Generator: Adobe Illustrator 19.2.1, SVG Export Plug-In . SVG Version: 6.00 Build 0)  -->
<svg version="1.1" id="Capa_1" xmlns="http://www.w3.org/2000/svg" xmlns:xlink="http://www.w3.org/1999/xlink" x="0px" y="0px"
	 viewBox="0 0 441.3 441.3" style="enable-background:new 0 0 441.3 441.3;" xml:space="preserve">
<style type="text/css">
	.st0{fill:#D24D57;}
</style>
<g>
	<path class="st0" d="M314,17.7c-36.9,0-70.1,16.4-93.3,42.6c-23.3-26.2-56.5-42.6-93.3-42.6C57,17.7,0,77.4,0,151
		c0,19.8,3.3,38.8,9.2,57c0,0,5.3,16.4,10,25.4c53.7,115.4,201.5,190.3,201.5,190.3s147.8-74.9,201.5-190.3c0,0,6.9-15.4,10-25.4
		c5.6-18.3,9.2-37.2,9.2-57C441.3,77.4,384.3,17.7,314,17.7z"/>
</g>
</svg>
