<?xml version="1.0" encoding="utf-8"?>
<!-- Generator: Adobe Illustrator 19.2.1, SVG Export Plug-In . SVG Version: 6.00 Build 0)  -->
<svg version="1.1" id="Capa_1" xmlns="http://www.w3.org/2000/svg" xmlns:xlink="http://www.w3.org/1999/xlink" x="0px" y="0px"
	 viewBox="0 0 31.7 31.7" style="enable-background:new 0 0 31.7 31.7;" xml:space="preserve">
<style type="text/css">
	.st0{fill:#F4B350;}
	.st1{fill:#D24D57;}
	.st2{fill:#995E10;}
</style>
<ellipse class="st0" cx="15.9" cy="11" rx="7.3" ry="7"/>
<g>
	<g>
		<polygon class="st1" points="6.5,21.3 3.8,29 8.7,27.3 11.5,31.7 14.3,23.9 11.7,21.6 		"/>
		<polygon class="st1" points="25.2,21.3 20.1,21.6 17.4,23.9 20.2,31.7 23,27.3 27.9,29 		"/>
		<path class="st0" d="M24,19.6l0.3-4.6l3-3.5l-3-3.5L24,3.4L19.3,3l-3.5-3l-3.5,3L7.7,3.4L7.4,8l-3,3.5l3,3.5l0.3,4.6l4.6,0.3
			l3.5,3l3.5-3L24,19.6z M15.8,17.8c-3.5,0-6.4-2.9-6.4-6.4S12.2,5,15.8,5s6.4,2.9,6.4,6.4C22.2,15,19.3,17.8,15.8,17.8z"/>
		<polygon class="st2" points="13.7,8.7 13.9,10 15.3,9.3 15.3,9.3 15.3,15 17,15 17,7.8 15.6,7.8 		"/>
	</g>
</g>
</svg>
