<?xml version="1.0" encoding="utf-8"?>
<!-- Generator: Adobe Illustrator 19.2.1, SVG Export Plug-In . SVG Version: 6.00 Build 0)  -->
<svg version="1.1" id="Laag_1" xmlns="http://www.w3.org/2000/svg" xmlns:xlink="http://www.w3.org/1999/xlink" x="0px" y="0px"
	 viewBox="0 0 81 16" style="enable-background:new 0 0 81 16;" xml:space="preserve">
<style type="text/css">
	.st0{fill:#CA7E3B;}
	.st1{fill:#EC974E;}
	.st2{fill:#FFFFFF;}
</style>
<path class="st0" d="M10.5,8.3c0-2.4,1.9-4.3,4.3-4.3s4.3,1.9,4.3,4.3s-1.9,4.3-4.3,4.3S10.5,10.7,10.5,8.3"/>
<circle class="st0" cx="24.2" cy="8.3" r="4.3"/>
<circle class="st0" cx="33.8" cy="8.3" r="4.3"/>
<circle class="st0" cx="43.2" cy="8.3" r="4.3"/>
<path class="st1" d="M10.5,7.7c0-2.4,1.9-4.3,4.3-4.3s4.3,1.9,4.3,4.3S17.2,12,14.8,12S10.5,10.1,10.5,7.7"/>
<circle class="st1" cx="24.2" cy="7.7" r="4.3"/>
<circle class="st1" cx="33.8" cy="7.7" r="4.3"/>
<circle class="st1" cx="43.2" cy="7.7" r="4.3"/>
<g>
	<path class="st2" d="M15.1,6.1v3.7h-0.5V6.1H15.1z"/>
</g>
<g>
	<path class="st2" d="M23.3,6.1l1.2,2.1l1.2-2.1h0.4v3.7h-0.5V7.1l-1.1,2l-1.2-2v2.7h-0.5V6.1H23.3z"/>
</g>
<g>
	<path class="st2" d="M32.7,6L33.9,8L35.1,6h0.4v3.7h-0.5V7l-1.1,2l-1.2-2v2.7h-0.5V6H32.7z"/>
</g>
<g>
	<path class="st2" d="M43.5,6.1l1.3,3.7h-0.5l-0.5-1.3h-1l-0.5,1.3H42l1.3-3.7H43.5z M43.7,8l-0.3-0.9L43.1,8H43.7z"/>
</g>
<circle class="st0" cx="5.2" cy="8.3" r="4.3"/>
<circle class="st1" cx="5.2" cy="7.7" r="4.3"/>
<g>
	<path class="st2" d="M6.7,9.2C6.3,9.6,5.9,9.8,5.4,9.8c-0.5,0-1-0.2-1.3-0.5C3.7,8.9,3.5,8.4,3.5,7.9c0-0.5,0.2-1,0.5-1.3
		C4.4,6.2,4.9,6,5.4,6c0.5,0,0.9,0.2,1.4,0.6L6.4,6.9c-0.3-0.3-0.7-0.4-1-0.4c-0.4,0-0.7,0.1-1,0.4C4.1,7.2,4,7.5,4,7.9
		c0,0.4,0.1,0.7,0.4,1c0.3,0.3,0.6,0.4,1,0.4C5.7,9.3,6,9.2,6.2,9V7.9h0.5V9.2z"/>
</g>
</svg>
