<?xml version="1.0" encoding="utf-8"?>
<!-- Generator: Adobe Illustrator 19.2.1, SVG Export Plug-In . SVG Version: 6.00 Build 0)  -->
<svg version="1.1" id="Capa_1" xmlns="http://www.w3.org/2000/svg" xmlns:xlink="http://www.w3.org/1999/xlink" x="0px" y="0px"
	 viewBox="0 0 297 297" style="enable-background:new 0 0 297 297;" xml:space="preserve">
<style type="text/css">
	.st0{fill:#FFFFFF;}
</style>
<g>
	<path class="st0" d="M49.7,136.7c-4-3.3-9.9-2.7-13.2,1.3c-2.5,3-3.8,5-4,5.2c-2.9,4.3-1.7,10.1,2.6,13c1.6,1.1,3.4,1.6,5.2,1.6
		c3,0,6-1.5,7.8-4.2c0,0,1-1.5,2.9-3.8C54.3,146,53.7,140,49.7,136.7z"/>
	<path class="st0" d="M156.4,134.8c-2.4-3.3-4.9-6.1-7.5-8.8c-3.7-3.7-9.6-3.7-13.3,0c-3.7,3.7-3.7,9.6,0,13.3c2,2,3.9,4.2,5.8,6.8
		c1.8,2.5,4.7,3.8,7.5,3.8c2,0,3.9-0.6,5.6-1.9C158.7,144.9,159.5,139,156.4,134.8z"/>
	<path class="st0" d="M72.3,110.5c-3.5,1.5-7,3.2-10.4,5.3c-4.4,2.7-5.9,8.5-3.2,12.9c1.8,2.9,4.9,4.6,8.1,4.6
		c1.7,0,3.3-0.4,4.8-1.4c2.6-1.6,5.3-2.9,7.9-4c4.8-2,7-7.5,5-12.3C82.6,110.7,77.1,108.5,72.3,110.5z"/>
	<path class="st0" d="M173,161.8c-2.7-4.4-8.5-5.8-12.9-3.2c-4.4,2.7-5.8,8.5-3.2,12.9c2.2,3.6,4.2,6.6,6.2,9.3
		c1.8,2.5,4.7,3.8,7.5,3.8c2,0,3.9-0.6,5.6-1.9c4.2-3.1,5-9,1.9-13.2C176.6,167.4,174.9,164.9,173,161.8z"/>
	<path class="st0" d="M235.6,205.1c0.4,0,0.8,0,1.3-0.1c1.9-0.3,3.9-0.6,5.9-0.9c5.1-0.9,8.6-5.7,7.7-10.8
		c-0.9-5.1-5.7-8.6-10.8-7.7c-1.8,0.3-3.6,0.6-5.3,0.8c-5.1,0.7-8.8,5.4-8.1,10.6C227,201.7,231,205.1,235.6,205.1z"/>
	<path class="st0" d="M234.6,124.2c1.8,1.8,4.2,2.8,6.6,2.8c2.4,0,4.8-0.9,6.6-2.8l1.1-1.1l1.1,1.1c1.8,1.8,4.2,2.8,6.6,2.8
		c2.4,0,4.8-0.9,6.6-2.8c3.7-3.7,3.7-9.6,0-13.3l-1.1-1.1l1.1-1.1c3.7-3.7,3.7-9.6,0-13.3s-9.6-3.7-13.3,0l-1.1,1.1l-1.1-1.1
		c-3.7-3.7-9.6-3.7-13.3,0s-3.7,9.6,0,13.3l1.1,1.1l-1.1,1.1C230.9,114.6,230.9,120.6,234.6,124.2z"/>
	<path class="st0" d="M293.7,33.1c-2.1-1.8-4.9-2.6-7.6-2.1l-91.2,15.2l-34.1-5.7c-4.1-0.7-8.1,1.4-10,5.1l-2.3,4.6l-4.2-8.5
		c-1.3-2.7-3.9-4.6-6.9-5.1L103.7,31c-1-0.2-2.1-0.2-3.1,0c0,0,0,0,0,0L7.9,46.5C3.3,47.3,0,51.2,0,55.8v200.9
		c0,2.8,1.2,5.4,3.3,7.2c1.7,1.4,3.9,2.2,6.1,2.2c0.5,0,1,0,1.5-0.1l38.2-6.4c3.4-0.6,6.3-3,7.4-6.3l1-3l0.6,1.1
		c1.8,3.7,5.9,5.7,10,5.1l34.1-5.7l91.2,15.2c0.5,0.1,1,0.1,1.5,0.1c0.5,0,1,0,1.5-0.1c0,0,0,0,0,0l50.6-8.4c3-0.5,5.5-2.4,6.9-5.1
		l2.8-5.7l1.1,2.2c1.8,3.7,5.9,5.7,10,5.1l21.4-3.6c4.5-0.8,7.9-4.7,7.9-9.3V40.3C297,37.5,295.8,34.9,293.7,33.1z M64.2,221.6
		c-1.7-3.4-5.3-5.5-9.1-5.2c-3.8,0.3-7,2.8-8.2,6.4L40.5,242l-21.7,3.6V63.7l73.9-12.3v181.9l-21,3.5L64.2,221.6z M111.5,125.6
		c0.6,0.2,1.2,0.3,1.8,0.5c0.9,0.3,1.8,0.4,2.8,0.4c4,0,7.7-2.6,9-6.6c1.5-5-1.3-10.2-6.2-11.7c-2.4-0.7-4.9-1.3-7.3-1.8V51.4
		l18.1,3l10.5,21c1.6,3.2,4.8,5.2,8.4,5.2c3.6,0,6.8-2,8.4-5.2l7.6-15.2l21,3.5v181.9l-73.9-12.3L111.5,125.6L111.5,125.6z
		 M278.2,233.3l-6.7,1.1l-6.4-12.8c-1.6-3.2-4.8-5.2-8.4-5.2c-3.6,0-6.8,2-8.4,5.2l-9.1,18.2l-34.9,5.8v-40.2c0.1,0,0.3,0,0.4,0
		c4.5,0,8.5-3.3,9.3-7.9c0.8-5.1-2.6-10-7.8-10.8c-0.7-0.1-1.3-0.2-1.9-0.4V63.7l73.9-12.3L278.2,233.3L278.2,233.3z"/>
</g>
</svg>
