<?xml version="1.0" encoding="utf-8"?>
<!-- Generator: Adobe Illustrator 19.2.1, SVG Export Plug-In . SVG Version: 6.00 Build 0)  -->
<svg version="1.1" id="Laag_1" xmlns="http://www.w3.org/2000/svg" xmlns:xlink="http://www.w3.org/1999/xlink" x="0px" y="0px"
	 viewBox="0 0 23 24" style="enable-background:new 0 0 23 24;" xml:space="preserve">
<style type="text/css">
	.st0{fill:#FFFFFF;}
</style>
<g>
	
		<image style="overflow:visible;opacity:0.35;" width="50" height="52" xlink:href="522D7515.png"  transform="matrix(1 0 0 1 -13.5125 -12.8977)">
	</image>
	<g>
		<g>
			<path class="st0" d="M20.2,18.6l-5.8-0.9l-4,4.3c-0.3,0.3-0.7,0.4-1.1,0.3c-0.2-0.1-0.4-0.2-0.6-0.4c-0.1-0.1-0.2-0.3-0.2-0.5
				l-1-5.8l-5.3-2.5c-0.4-0.2-0.6-0.6-0.6-1c0-0.4,0.2-0.8,0.6-1l5.2-2.7L8,2.6c0.1-0.4,0.3-0.8,0.7-0.9c0.4-0.1,0.8,0,1.1,0.3
				l4.2,4.1l5.8-1.1C20.3,4.9,20.7,5,21,5.4c0.3,0.3,0.3,0.8,0.1,1.2l-2.6,5.3l2.9,5.1c0.2,0.4,0.2,0.8-0.1,1.2
				C21,18.4,20.6,18.6,20.2,18.6z"/>
		</g>
	</g>
</g>
</svg>
